<svg xmlns="http://www.w3.org/2000/svg" width="375" viewBox="0 0 375 375" height="375" version="1.0"><defs><clipPath id="a"><path d="M 136 64.144531 L 238 64.144531 L 238 210 L 136 210 Z M 136 64.144531"/></clipPath><clipPath id="b"><path d="M 97 157 L 278 157 L 278 283.144531 L 97 283.144531 Z M 97 157"/></clipPath></defs><g clip-path="url(#a)"><path fill="#FFF" d="M 187.421875 64.179688 C 159.519531 64.179688 136.898438 86.816406 136.898438 114.742188 C 136.898438 134.472656 162.109375 178.796875 176.914062 203.125 C 181.710938 211.003906 193.132812 211.003906 197.929688 203.125 C 212.734375 178.796875 237.945312 134.472656 237.945312 114.742188 C 237.945312 86.816406 215.324219 64.179688 187.421875 64.179688 Z M 187.421875 146 C 170.796875 146 157.324219 132.515625 157.324219 115.875 C 157.324219 99.238281 170.796875 85.753906 187.421875 85.753906 C 204.046875 85.753906 217.519531 99.238281 217.519531 115.875 C 217.519531 132.515625 204.046875 146 187.421875 146 Z M 187.421875 146"/></g><path fill="#FFF" d="M 204.011719 115.875 C 204.011719 116.421875 203.984375 116.960938 203.929688 117.503906 C 203.878906 118.046875 203.796875 118.582031 203.691406 119.117188 C 203.585938 119.648438 203.453125 120.175781 203.296875 120.695312 C 203.140625 121.214844 202.957031 121.726562 202.746094 122.230469 C 202.539062 122.734375 202.308594 123.222656 202.050781 123.703125 C 201.796875 124.183594 201.515625 124.648438 201.214844 125.101562 C 200.914062 125.554688 200.589844 125.988281 200.246094 126.410156 C 199.902344 126.828125 199.535156 127.230469 199.152344 127.617188 C 198.769531 128 198.367188 128.367188 197.945312 128.710938 C 197.527344 129.054688 197.089844 129.378906 196.636719 129.679688 C 196.1875 129.984375 195.722656 130.261719 195.242188 130.519531 C 194.761719 130.777344 194.273438 131.007812 193.769531 131.214844 C 193.269531 131.425781 192.757812 131.605469 192.238281 131.765625 C 191.71875 131.921875 191.191406 132.054688 190.65625 132.160156 C 190.125 132.265625 189.589844 132.347656 189.046875 132.398438 C 188.507812 132.453125 187.964844 132.480469 187.421875 132.480469 C 186.878906 132.480469 186.335938 132.453125 185.796875 132.398438 C 185.253906 132.347656 184.71875 132.265625 184.183594 132.160156 C 183.652344 132.054688 183.125 131.921875 182.605469 131.765625 C 182.085938 131.605469 181.574219 131.425781 181.074219 131.214844 C 180.570312 131.007812 180.082031 130.777344 179.601562 130.519531 C 179.121094 130.261719 178.65625 129.984375 178.207031 129.679688 C 177.753906 129.378906 177.316406 129.054688 176.898438 128.710938 C 176.476562 128.367188 176.074219 128 175.691406 127.617188 C 175.308594 127.230469 174.941406 126.828125 174.597656 126.410156 C 174.253906 125.988281 173.929688 125.554688 173.628906 125.101562 C 173.328125 124.648438 173.046875 124.183594 172.792969 123.703125 C 172.535156 123.222656 172.304688 122.734375 172.09375 122.230469 C 171.886719 121.726562 171.703125 121.214844 171.546875 120.695312 C 171.390625 120.175781 171.257812 119.648438 171.152344 119.117188 C 171.046875 118.582031 170.964844 118.046875 170.914062 117.503906 C 170.859375 116.960938 170.832031 116.421875 170.832031 115.875 C 170.832031 115.332031 170.859375 114.789062 170.914062 114.25 C 170.964844 113.707031 171.046875 113.171875 171.152344 112.636719 C 171.257812 112.105469 171.390625 111.578125 171.546875 111.058594 C 171.703125 110.535156 171.886719 110.023438 172.09375 109.523438 C 172.304688 109.019531 172.535156 108.53125 172.792969 108.050781 C 173.046875 107.570312 173.328125 107.105469 173.628906 106.652344 C 173.929688 106.199219 174.253906 105.765625 174.597656 105.34375 C 174.941406 104.921875 175.308594 104.519531 175.691406 104.136719 C 176.074219 103.75 176.476562 103.386719 176.898438 103.042969 C 177.316406 102.695312 177.753906 102.375 178.207031 102.070312 C 178.65625 101.769531 179.121094 101.492188 179.601562 101.234375 C 180.082031 100.976562 180.570312 100.746094 181.074219 100.539062 C 181.574219 100.328125 182.085938 100.144531 182.605469 99.988281 C 183.125 99.832031 183.652344 99.699219 184.183594 99.59375 C 184.71875 99.488281 185.253906 99.40625 185.796875 99.351562 C 186.335938 99.300781 186.878906 99.273438 187.421875 99.273438 C 187.964844 99.273438 188.507812 99.300781 189.046875 99.351562 C 189.589844 99.40625 190.125 99.488281 190.65625 99.59375 C 191.191406 99.699219 191.71875 99.832031 192.238281 99.988281 C 192.757812 100.144531 193.269531 100.328125 193.769531 100.539062 C 194.273438 100.746094 194.761719 100.976562 195.242188 101.234375 C 195.722656 101.492188 196.1875 101.769531 196.636719 102.070312 C 197.089844 102.375 197.527344 102.695312 197.945312 103.042969 C 198.367188 103.386719 198.769531 103.75 199.152344 104.136719 C 199.535156 104.519531 199.902344 104.921875 200.246094 105.34375 C 200.589844 105.765625 200.914062 106.199219 201.214844 106.652344 C 201.515625 107.105469 201.796875 107.570312 202.050781 108.050781 C 202.308594 108.53125 202.539062 109.019531 202.746094 109.523438 C 202.957031 110.023438 203.140625 110.535156 203.296875 111.058594 C 203.453125 111.578125 203.585938 112.105469 203.691406 112.636719 C 203.796875 113.171875 203.878906 113.707031 203.929688 114.25 C 203.984375 114.789062 204.011719 115.332031 204.011719 115.875 Z M 204.011719 115.875"/><g clip-path="url(#b)"><path fill="#FFF" d="M 277.273438 265.382812 L 262.183594 170.527344 C 260.992188 163.050781 254.558594 157.554688 246.992188 157.554688 L 230.265625 157.554688 C 228.40625 161.460938 226.433594 165.410156 224.398438 169.359375 L 235.800781 169.359375 C 241.941406 169.359375 247.171875 173.824219 248.132812 179.894531 L 251.726562 202.472656 L 246.179688 202.472656 C 233.851562 202.472656 222.101562 198.738281 212.195312 191.828125 C 210.246094 195.253906 208.324219 198.574219 206.464844 201.75 C 207.535156 202.480469 208.625 203.175781 209.730469 203.847656 L 184.890625 232.714844 L 181.933594 228.167969 C 176.433594 219.71875 167.128906 214.671875 157.058594 214.671875 L 142.304688 214.671875 L 165.238281 196.34375 C 163.371094 193.097656 161.457031 189.730469 159.535156 186.296875 L 124.035156 214.671875 L 121.1875 214.671875 L 126.71875 179.894531 C 127.6875 173.824219 132.910156 169.359375 139.054688 169.359375 L 150.453125 169.359375 C 148.417969 165.410156 146.445312 161.460938 144.585938 157.554688 L 127.859375 157.554688 C 120.292969 157.554688 113.859375 163.058594 112.667969 170.527344 L 97.582031 265.382812 C 96.097656 274.730469 103.308594 283.195312 112.769531 283.195312 L 262.082031 283.195312 C 271.535156 283.195312 278.753906 274.730469 277.273438 265.382812 Z M 220.300781 209.03125 C 228.429688 212.214844 237.179688 213.882812 246.167969 213.882812 L 253.539062 213.882812 L 257.285156 237.4375 L 195.863281 237.4375 Z M 126.796875 271.390625 C 119.109375 271.390625 113.25 264.515625 114.460938 256.925781 L 119.367188 226.082031 L 157.046875 226.082031 C 163.257812 226.082031 168.988281 229.1875 172.375 234.390625 L 196.472656 271.390625 Z M 248.046875 271.390625 L 210.066406 271.390625 L 195.390625 248.847656 L 259.097656 248.847656 L 260.382812 256.925781 C 261.59375 264.515625 255.734375 271.390625 248.046875 271.390625 Z M 248.046875 271.390625"/></g></svg>